<?xml version="1.0" encoding="UTF-8"?>
<svg viewBox="0 0 1037.7123 591.45416" xmlns="http://www.w3.org/2000/svg" xmlns:xlink="http://www.w3.org/1999/xlink">
 <g transform="translate(.85618 -86.273)">
  <path transform="matrix(.125 0 0 .125 -33.538 20.174)" d="m354.46 531.29a2.5 2.5 0 1 1 -5 0 2.5 2.5 0 1 1 5 0z" fill="#fff"/>
  <g transform="translate(0 -2)">
   <path d="m13.206 104.29h1009.4v559.38h-1009.4z" fill="#545454"/>
   <path d="m25.386 90.227c-18.676 0.4182-27.176 11.015-26.039 31.246l-0.2031-2.4492v529.41l0.1757-1.996c-1.3651 19.918 6.9247 30.182 24.371 31.289h990.61c13.734-1.4056 21.095-9.1869 22.348-23.074v-542.04c-1.4487-14.023-9.5553-21.387-24.031-22.383h-983.48l1.5078 0.1328c-1.0467-0.0717-2.065-0.1143-3.0585-0.1328h-2.1915zm492.05 22.793h0.2656c11.646-0.0604 23.335 6.9776 27.133 20.957h408.33l5.3984-5.3984c6.8052-5.8905 14.018-8.4066 20.746-8.4375 21.979-0.101 38.761 26.316 19.074 48.258l-5.4882 5.4883v420.21l4.6718 4.6719c25.133 29.035-11.162 65.534-39.82 39.82l-4.6133-4.6133h-408.43c-7.2981 28.288-46.602 28.692-54.043 0h-408.12l-5.0899 5.0899c-29.035 25.132-65.534-11.162-39.82-39.82l5.2696-5.2695v-420.25l-5.1329-5.1328c-19.046-22.003-2.8143-48.294 18.637-48.547 6.8555-0.0809 14.243 2.4991 21.184 8.7266l5.1992 5.1992h408.22c3.7753-13.85 15.054-20.792 26.43-20.957z" fill="#4b1818"/>
   <path d="m78.48 133.98 11.008 9.4024c-0.0494 27.521-10.98 37.329-37.375 37.5l-9.2187-10.254v427.49l9.0429-10.586c27.521 0.0494 37.329 10.98 37.5 37.375l-10.094 9.0742h411.96l-0.2812-6.6758c17.504-13.009 35.352-12.681 53.562 0v6.6758h412.59l-11.414-9.75c0.0494-27.521 10.98-37.329 37.375-37.5l9.75 10.848v-427.6l-9.0547 10.602c-27.521-0.0495-37.329-10.98-37.5-37.375l10.266-9.2266h-411.75v7.586c-18.211 12.681-36.063 13.009-53.566 0l0.3242-7.586h-413.13z" fill="#00c57d"/>
   <path d="m80.394 133.98 25 25h380l8.25-25h-413.25zm461.75 0 8.25 25h380l25-25h-413.25zm450.75 37.5-25 25v375l25 25v-425zm-950 0v425l25-25v-375l-25-25zm62.5 437.5-25 25h412.5l-7.5-25h-380zm445 0-8.25 25h413.25l-25-25h-380z" fill="#009b50"/>
   <path transform="matrix(.125 0 0 .125 -16.102 435.26)" d="m396.96 545.76a25 25 0 1 1 -50 0 25 25 0 1 1 50 0z" fill="#fff"/>
   <path transform="matrix(.125 0 0 .125 -16.102 312.63)" d="m396.96 545.76a25 25 0 1 1 -50 0 25 25 0 1 1 50 0z" fill="#fff"/>
   <path transform="matrix(.125 0 0 .125 -16.102 190.01)" d="m396.96 545.76a25 25 0 1 1 -50 0 25 25 0 1 1 50 0z" fill="#fff"/>
   <path transform="matrix(.125 0 0 .125 127.65 47.007)" d="m396.96 545.76a25 25 0 1 1 -50 0 25 25 0 1 1 50 0z" fill="#fff"/>
   <path transform="matrix(.125 0 0 .125 250.27 47.007)" d="m396.96 545.76a25 25 0 1 1 -50 0 25 25 0 1 1 50 0z" fill="#fff"/>
   <path transform="matrix(.125 0 0 .125 372.9 47.007)" d="m396.96 545.76a25 25 0 1 1 -50 0 25 25 0 1 1 50 0z" fill="#fff"/>
   <path transform="matrix(.125 0 0 .125 576.15 47.007)" d="m396.96 545.76a25 25 0 1 1 -50 0 25 25 0 1 1 50 0z" fill="#fff"/>
   <path transform="matrix(.125 0 0 .125 698.77 47.007)" d="m396.96 545.76a25 25 0 1 1 -50 0 25 25 0 1 1 50 0z" fill="#fff"/>
   <path transform="matrix(.125 0 0 .125 821.4 47.007)" d="m396.96 545.76a25 25 0 1 1 -50 0 25 25 0 1 1 50 0z" fill="#fff"/>
   <path transform="matrix(.125 0 0 .125 965.15 190.01)" d="m396.96 545.76a25 25 0 1 1 -50 0 25 25 0 1 1 50 0z" fill="#fff"/>
   <path transform="matrix(.125 0 0 .125 965.15 312.63)" d="m396.96 545.76a25 25 0 1 1 -50 0 25 25 0 1 1 50 0z" fill="#fff"/>
   <path transform="matrix(.125 0 0 .125 965.15 435.26)" d="m396.96 545.76a25 25 0 1 1 -50 0 25 25 0 1 1 50 0z" fill="#fff"/>
   <path transform="matrix(.125 0 0 .125 821.4 578.26)" d="m396.96 545.76a25 25 0 1 1 -50 0 25 25 0 1 1 50 0z" fill="#fff"/>
   <path transform="matrix(.125 0 0 .125 698.77 578.26)" d="m396.96 545.76a25 25 0 1 1 -50 0 25 25 0 1 1 50 0z" fill="#fff"/>
   <path transform="matrix(.125 0 0 .125 576.15 578.26)" d="m396.96 545.76a25 25 0 1 1 -50 0 25 25 0 1 1 50 0z" fill="#fff"/>
   <path transform="matrix(.125 0 0 .125 372.9 578.26)" d="m396.96 545.76a25 25 0 1 1 -50 0 25 25 0 1 1 50 0z" fill="#fff"/>
   <path transform="matrix(.125 0 0 .125 250.27 578.26)" d="m396.96 545.76a25 25 0 1 1 -50 0 25 25 0 1 1 50 0z" fill="#fff"/>
   <path transform="matrix(.125 0 0 .125 127.65 578.26)" d="m396.96 545.76a25 25 0 1 1 -50 0 25 25 0 1 1 50 0z" fill="#fff"/>
   <path d="m51.052 181.86-13.304-13.304c-25.133-29.035 11.163-65.535 39.821-39.822l13.304 13.304 0.0792 0.2378-1.5153 0.7576-15.405-12.627c-27.735-6.6145-41.288 7.1239-34.85 34.85 2.1045 2.9456 4.209 5.2936 6.3135 7.5762l6.566 7.8286-1.0097 1.1979z" fill-rule="evenodd" stroke="#000" stroke-width=".125"/>
   <path d="m90.699 625.88-13.304 13.304c-29.035 25.132-65.535-11.163-39.821-39.822l13.304-13.304 0.2378-0.0792 0.7576 1.5152-12.627 15.405c-6.6145 27.735 7.124 41.288 34.85 34.85 2.9456-2.1044 5.2936-4.2089 7.5761-6.3134l7.8287-6.566 1.1979 1.0097z" fill-rule="evenodd" stroke="#000" stroke-width=".125"/>
   <path d="m984.27 585.52 13.304 13.304c25.133 29.035-11.163 65.535-39.821 39.821l-13.304-13.304-0.0791-0.2378 1.5152-0.7576 15.405 12.627c27.735 6.6145 41.288-7.124 34.85-34.85-2.1045-2.9456-4.209-5.2936-6.3135-7.5761l-6.566-7.8287 1.0097-1.1979z" fill-rule="evenodd" stroke="#000" stroke-width=".125"/>
   <path d="m945.33 141.89 13.304-13.304c29.035-25.133 65.535 11.163 39.821 39.821l-13.304 13.304-0.2377 0.0791-0.7576-1.5152 12.627-15.405c6.6145-27.735-7.124-41.288-34.85-34.85-2.9456 2.1045-5.2936 4.209-7.5761 6.3135l-7.8287 6.566-1.1979-1.0097z" fill-rule="evenodd" stroke="#000" stroke-width=".125"/>
   <path d="m489.41 626.67c1.5228 42.386 53.313 41.718 56.429 0l0.0144-0.1355-1.2627 0.9012c-13.116 29.727-42.296 29.903-53.854 0l-1.3263-0.7657z" fill-rule="evenodd" stroke="#000" stroke-width=".125"/>
   <path d="m489.76 142.42c1.5228-42.386 53.313-41.718 56.429 0l0.0143 0.1355-1.2627-0.9012c-13.116-29.727-42.296-29.903-53.854 0l-1.3262 0.7657z" fill-rule="evenodd" stroke="#000" stroke-width=".125"/>
   <path d="m71.092 123.89v-33.764h-43.841c-18.531-0.1411-28.254 8.7461-27.931 27.931v44.017h33.588c-13.023-23.718 11.617-52.758 38.184-38.184z" fill="#eeeff9" fill-rule="evenodd" stroke="#000" stroke-width=".125"/>
   <path d="m1003 162.09h33.764v-43.841c0.1411-18.531-8.7461-28.254-27.931-27.931h-44.017v33.588c23.718-13.023 52.758 11.617 38.184 38.184z" fill="#eeeff9" fill-rule="evenodd" stroke="#000" stroke-width=".125"/>
   <path d="m33.044 605.57h-33.764v43.841c-0.1411 18.531 8.7461 28.254 27.931 27.931h44.017v-33.588c-23.718 13.023-52.758-11.617-38.184-38.184z" fill="#eeeff9" fill-rule="evenodd" stroke="#000" stroke-width=".125"/>
   <path d="m964.72 643.81v33.764h43.841c18.531 0.1411 28.254-8.7462 27.931-27.931v-44.017h-33.588c13.023 23.718-11.617 52.758-38.184 38.184z" fill="#eeeff9" fill-rule="evenodd" stroke="#000" stroke-width=".125"/>
  </g>
  <g transform="matrix(1.1931 -.16231 .14657 1.0773 76.344 71.268)">
   <path id="d" d="m8.3002 199.8-7.8205-1.9159v-8.6721l7.8453-1.9159-0.02476 12.504z" fill-rule="evenodd" stroke="#000" stroke-linecap="round" stroke-linejoin="round" stroke-width=".1748"/>
   <path id="b" d="m598.24277,191.04676c-.02083.55528-.0098,1.11543-.01833,1.67254-.00687,1.0926-.01222,2.18521-.01831,3.27782 .07928.06229.22195.01024.32557.02735h.87259c.09035-.11649.12879-.27583.19082-.41255 .2703-.70949.43288-1.46454.401-2.22475-.0099-.80363-.24148-1.59061-.56799-2.32217-.15288-.0405-.3288-.00916-.49062-.02177-.23071.0042-.46773-.0174-.69473.00353z" fill="#2b1100"/>
   <path id="a" d="m591.77589,191.06593c-.02949,1.54392-.00421,3.0973-.01264,4.64485-.09318.29656.13587.34872.3862.30385h6.03202c.12565-.15232.02066-.42646.05518-.62557v-4.28962c-.15672-.12211-.43879-.02007-.64366-.05362h-5.77455l-.03309.01564-.00946.00447z" fill="#dada98" fill-rule="evenodd"/>
   <path d="m8.1699 199.98v-12.862l583.59 3.9493 0.01843 4.9589-583.61 3.9534z" fill="#e4ad2c" fill-rule="evenodd"/>
   <path id="c" d="m8.4051 187.1-0.03687 12.863 217.95-1.4702-69.596-2.2893h-0.10323l69.655-2.7234-69.655-2.7202s1.4761-0.07037 69.662-2.1418l-217.88-1.5179z" fill="#a11d1d" fill-rule="evenodd"/>
   <use width="602.24365" height="17.50398" xlink:href="#d"/>
   <use width="602.24365" height="17.50398" xlink:href="#b"/>
   <use width="602.24365" height="17.50398" xlink:href="#a"/>
   <use width="602.24365" height="17.50398" xlink:href="#c"/>
  </g>
  <path transform="matrix(.22576 0 0 .22576 258.41 339.77)" d="m214.29 169.51a65.714 65.714 0 1 1 -131.43 0 65.714 65.714 0 1 1 131.43 0z" fill="#fffff0"/>
  <g transform="matrix(0 -1 1 0 546.48 764.29)">
   <path d="m382.6 234.13c-8.1675 0-14.797 6.6297-14.797 14.797s6.6297 14.797 14.797 14.797 14.797-6.6297 14.797-14.797-6.6297-14.797-14.797-14.797z" fill-rule="evenodd"/>
   <path d="m382.74 244.73c2.2868 0.01277 4.1781 2.2594 3.8981 4.5384-0.21813 3.1852-4.649 4.5679-6.797 2.3571-2.4482-2.1134-0.7593-6.7368 2.4345-6.8674 0.15543-0.01966 0.31194-0.029 0.46439-0.02815z" fill="#fff" fill-rule="evenodd"/>
   <text x="381.05133" y="250.57542" font-family="Bitstream Vera Sans" font-size="5.4038">
    <tspan x="381.05133" y="250.57542">8</tspan>
   </text>
  </g>
  <g transform="matrix(0 -1 1 0 495.92 484.61)">
   <path d="m105.02 232.95c-8.1888 0-14.836 6.647-14.836 14.836s6.647 14.836 14.836 14.836 14.836-6.647 14.836-14.836-6.647-14.836-14.836-14.836z" fill="#fff400" fill-rule="evenodd"/>
   <path d="m105.52 243.75c2.2928 0.01279 4.189 2.2653 3.9082 4.5502-0.2187 3.1935-4.6611 4.5798-6.8147 2.3633-2.4546-2.1189-0.76129-6.7543 2.4409-6.8853 0.15583-0.01971 0.31276-0.02906 0.46561-0.02821z" fill="#fff" fill-rule="evenodd"/>
   <text x="103.64794" y="249.71652" font-family="Bitstream Vera Sans" font-size="5.4179">
    <tspan x="103.64794" y="249.71652">1</tspan>
   </text>
  </g>
  <g transform="matrix(0 -1 1 0 549.12 559.46)">
   <path d="m148.14 230.18c-8.1889 0-14.836 6.647-14.836 14.836s6.647 14.836 14.836 14.836 14.836-6.647 14.836-14.836-6.647-14.836-14.836-14.836z" fill="#00007e" fill-rule="evenodd"/>
   <path d="m148.64 241.08c2.2928 0.01279 4.189 2.2653 3.9083 4.5502-0.2187 3.1935-4.6612 4.5798-6.8148 2.3633-2.4546-2.1189-0.76129-6.7544 2.4409-6.8853 0.15583-0.01971 0.31275-0.02907 0.46561-0.02821z" fill="#fff" fill-rule="evenodd"/>
   <text x="147.0473" y="246.9119" font-family="Bitstream Vera Sans" font-size="5.418">
    <tspan x="147.0473" y="246.9119">2</tspan>
   </text>
  </g>
  <g transform="matrix(0 -1 1 0 546.04 536.4)">
   <path d="m184.48 235.28c-8.1889 0-14.836 6.647-14.836 14.836s6.647 14.836 14.836 14.836 14.836-6.647 14.836-14.836-6.647-14.836-14.836-14.836z" fill="#f00" fill-rule="evenodd"/>
   <path d="m184.63 246.27c2.2928 0.0128 4.189 2.2653 3.9083 4.5502-0.2187 3.1935-4.6612 4.5798-6.8148 2.3633-2.4546-2.1189-0.76129-6.7544 2.4409-6.8853 0.15583-0.01971 0.31275-0.02908 0.46561-0.02822z" fill="#fff" fill-rule="evenodd"/>
   <text x="183.08667" y="252.22797" font-family="Bitstream Vera Sans" font-size="5.418">
    <tspan x="183.08667" y="252.22797">3</tspan>
   </text>
  </g>
  <g transform="matrix(0 -1 1 0 574.07 588.52)">
   <path d="m220.95 232.69c-8.1889 0-14.836 6.647-14.836 14.836s6.647 14.836 14.836 14.836 14.836-6.647 14.836-14.836-6.647-14.836-14.836-14.836z" fill="#3e0450" fill-rule="evenodd"/>
   <path d="m221.19 243.5c2.2928 0.0128 4.189 2.2653 3.9083 4.5502-0.2187 3.1935-4.6612 4.5798-6.8148 2.3633-2.4546-2.1189-0.76129-6.7544 2.4409-6.8853 0.15583-0.01971 0.31276-0.02907 0.46561-0.02822z" fill="#fff" fill-rule="evenodd"/>
   <text x="219.29355" y="249.37148" font-family="Bitstream Vera Sans" font-size="5.418">
    <tspan x="219.29355" y="249.37148">4</tspan>
   </text>
  </g>
  <g transform="matrix(0 -1 1 0 595.86 699.79)">
   <path d="m256.84 233.81c-8.1675 0-14.797 6.6297-14.797 14.797s6.6297 14.797 14.797 14.797 14.797-6.6297 14.797-14.797-6.6297-14.797-14.797-14.797z" fill="#ff7f00" fill-rule="evenodd"/>
   <path d="m257.16 244.76c2.2868 0.01277 4.1781 2.2594 3.8981 4.5384-0.21813 3.1852-4.649 4.5679-6.797 2.3571-2.4482-2.1134-0.7593-6.7367 2.4345-6.8674 0.15543-0.01966 0.31194-0.029 0.46439-0.02815z" fill="#fff" fill-rule="evenodd"/>
   <text x="255.42017" y="250.58429" font-family="Bitstream Vera Sans" font-size="5.4038">
    <tspan x="255.42017" y="250.58429">5</tspan>
   </text>
  </g>
  <g transform="matrix(0 -1 1 0 599.66 674.44)">
   <path d="m290.93 232.2c-8.1889 0-14.836 6.647-14.836 14.836s6.647 14.836 14.836 14.836 14.836-6.647 14.836-14.836-6.647-14.836-14.836-14.836z" fill="#007d00" fill-rule="evenodd"/>
   <path d="m291.26 243.27c2.2928 0.01279 4.189 2.2653 3.9083 4.5502-0.2187 3.1935-4.6612 4.5798-6.8148 2.3633-2.4546-2.1189-0.76129-6.7544 2.4409-6.8853 0.15583-0.01971 0.31276-0.02907 0.46561-0.02821z" fill="#fff" fill-rule="evenodd"/>
   <text x="289.47491" y="249.31172" font-family="Bitstream Vera Sans" font-size="5.418">
    <tspan x="289.47491" y="249.31172">6</tspan>
   </text>
  </g>
  <g transform="matrix(0 -1 1 0 600.57 658.43)">
   <path d="m334.83 233c-8.1888 0-14.836 6.647-14.836 14.836s6.647 14.836 14.836 14.836 14.836-6.647 14.836-14.836-6.647-14.836-14.836-14.836z" fill="#a10008" fill-rule="evenodd"/>
   <path d="m335.15 243.72c2.2928 0.01279 4.189 2.2653 3.9083 4.5502-0.2187 3.1935-4.6612 4.5798-6.8148 2.3633-2.4546-2.1189-0.76128-6.7544 2.4409-6.8853 0.15583-0.01971 0.31275-0.02907 0.4656-0.02821z" fill="#fff" fill-rule="evenodd"/>
   <text x="333.40768" y="249.4556" font-family="Bitstream Vera Sans" font-size="5.418">
    <tspan x="333.40768" y="249.4556">7</tspan>
   </text>
  </g>
  <g transform="matrix(0 -.22562 .22576 0 733.33 523.72)">
   <path transform="translate(420 -11.429)" d="m214.29 169.51a65.714 65.714 0 1 1 -131.43 0 65.714 65.714 0 1 1 131.43 0z" fill="#fff" fill-rule="evenodd"/>
   <path d="m619.38 126.48c-3.9738 0.00232-8.1468 0.53086-11.969 0.15625-32.112 0.12503-64.328-0.25003-96.375 0.1875-10.526 18.632-11.228 43.531-0.1875 62.281 34.298 0.9687 68.627 0.065 102.94 0.40625 4.2448-0.84138 10.424 1.4531 13.312-1.8125 10.048-18.295 9.6083-42.204-0.90625-60.344-2.1077-0.69097-4.4282-0.87639-6.8125-0.875zm-46.156 13.75c10.156 0.0567 18.556 10.035 17.312 20.156-0.96879 14.146-20.648 20.287-30.188 10.469-10.873-9.3861-3.3723-29.92 10.812-30.5 0.69027-0.0873 1.3854-0.12878 2.0625-0.125z" fill="#fff400" fill-rule="evenodd"/>
   <text x="565.71429" y="165.21933" font-family="Bitstream Vera Sans" font-size="24">
    <tspan x="565.71429" y="165.21933">9</tspan>
   </text>
  </g>
  <g transform="matrix(0 -.22494 .22577 0 697.06 461.59)">
   <path transform="translate(276.7 153.53)" d="m214.29 169.51a65.714 65.714 0 1 1 -131.43 0 65.714 65.714 0 1 1 131.43 0z" fill="#fff" fill-rule="evenodd"/>
   <path d="m476.49 292.25c-3.9738 0.00232-8.1468 0.53086-11.969 0.15625-32.112 0.12503-64.328-0.25003-96.375 0.1875-10.526 18.632-11.228 43.531-0.1875 62.281 34.298 0.9687 68.627 0.065 102.94 0.40625 4.2448-0.84138 10.424 1.4531 13.312-1.8125 10.048-18.295 9.6083-42.204-0.90625-60.344-2.1077-0.69097-4.4282-0.87639-6.8125-0.875zm-46.156 13.75c10.156 0.0567 18.556 10.035 17.312 20.156-0.96879 14.146-20.648 20.287-30.188 10.469-10.873-9.3861-3.3723-29.92 10.812-30.5 0.69027-0.0873 1.3854-0.12878 2.0625-0.125z" fill="#00007e" fill-rule="evenodd"/>
   <text x="414.28571" y="332.36218" font-family="Bitstream Vera Sans" font-size="24">
    <tspan x="414.28571" y="332.36218">10</tspan>
   </text>
  </g>
  <g transform="translate(-4.125,-4.5)">
   <path transform="matrix(0 -.22517 .22577 0 785.28 465.09)" d="m214.29 169.51a65.714 65.714 0 1 1 -131.43 0 65.714 65.714 0 1 1 131.43 0z" fill="#fff" fill-rule="evenodd"/>
   <path d="m816.35 420.14c5.2e-4 0.89478 0.11985 1.8344 0.03528 2.695 0.02822 7.2307-0.05645 14.485 0.04233 21.701 4.2065 2.3702 9.8279 2.5283 14.061 0.04222 0.2187-7.7229 0.01467-15.453 0.09172-23.179-0.18996-0.95582 0.32806-2.3472-0.40921-2.9976-4.1305-2.2626-9.5282-2.1635-13.624 0.20406-0.156 0.4746-0.19786 0.99712-0.19755 1.534zm3.1043 10.393c0.0128-2.2869 2.2655-4.1783 4.5506-3.8983 3.1938 0.21815 4.5802 4.6493 2.3635 6.7974-2.1191 2.4484-6.755 0.75934-6.8859-2.4347-0.0197-0.15543-0.02907-0.31195-0.02822-0.46441z" fill="#f00" fill-rule="evenodd"/>
   <text transform="matrix(0 -.99868 1.0013 0 0 0)" x="-434.84763" y="824.56445" font-family="Bitstream Vera Sans" font-size="5.4113">
    <tspan x="-434.84763" y="824.56445">11</tspan>
   </text>
  </g>
  <g transform="matrix(0 -.22524 .22577 0 711.33 494.02)">
   <path transform="translate(279.73 314.14)" d="m214.29 169.51a65.714 65.714 0 1 1 -131.43 0 65.714 65.714 0 1 1 131.43 0z" fill="#fff" fill-rule="evenodd"/>
   <path d="m479.34 452.25c-3.9738 0.00232-8.1468 0.53086-11.969 0.15625-32.112 0.12503-64.328-0.25003-96.375 0.1875-10.526 18.632-11.228 43.531-0.1875 62.281 34.298 0.9687 68.627 0.065 102.94 0.40625 4.2448-0.84138 10.424 1.4531 13.312-1.8125 10.048-18.295 9.6083-42.204-0.90625-60.344-2.1077-0.69097-4.4282-0.87639-6.8125-0.875zm-46.156 13.75c10.156 0.0567 18.556 10.035 17.312 20.156-0.96879 14.146-20.648 20.287-30.188 10.469-10.873-9.3861-3.3723-29.92 10.812-30.5 0.69027-0.0873 1.3854-0.12878 2.0625-0.125z" fill="#3e0450" fill-rule="evenodd"/>
   <text x="417.14285" y="490.93362" font-family="Bitstream Vera Sans" font-size="24">
    <tspan x="417.14285" y="490.93362">12</tspan>
   </text>
  </g>
  <g transform="matrix(0 -.2253 .22577 0 714.69 477.46)">
   <path transform="translate(471.66 307.07)" d="m214.29 169.51a65.714 65.714 0 1 1 -131.43 0 65.714 65.714 0 1 1 131.43 0z" fill="#fff" fill-rule="evenodd"/>
   <path d="m670.77 445.1c-3.9738 0.00232-8.1468 0.53086-11.969 0.15625-32.112 0.12503-64.328-0.25003-96.375 0.1875-10.526 18.632-11.228 43.531-0.1875 62.281 34.298 0.9687 68.627 0.065 102.94 0.40625 4.2448-0.84138 10.424 1.4531 13.312-1.8125 10.048-18.295 9.6083-42.204-0.90625-60.344-2.1077-0.69097-4.4282-0.87639-6.8125-0.875zm-46.156 13.75c10.156 0.0567 18.556 10.035 17.312 20.156-0.96879 14.146-20.648 20.287-30.188 10.469-10.873-9.3861-3.3723-29.92 10.812-30.5 0.69027-0.0873 1.3854-0.12878 2.0625-0.125z" fill="#ff7f00" fill-rule="evenodd"/>
   <text x="608.99585" y="484.63956" font-family="Bitstream Vera Sans" font-size="24">
    <tspan x="608.99585" y="484.63956">13</tspan>
   </text>
  </g>
  <g transform="matrix(0 -.22562 .22577 0 697.54 524.48)">
   <path transform="translate(344.29 487.14)" d="m214.29 169.51a65.714 65.714 0 1 1 -131.43 0 65.714 65.714 0 1 1 131.43 0z" fill="#fff" fill-rule="evenodd"/>
   <path d="m543.63 626.53c-3.9738 0.00232-8.1468 0.53086-11.969 0.15625-32.112 0.12503-64.328-0.25003-96.375 0.1875-10.526 18.632-11.228 43.531-0.1875 62.281 34.298 0.9687 68.627 0.065 102.94 0.40625 4.2448-0.84138 10.424 1.4531 13.312-1.8125 10.048-18.295 9.6083-42.204-0.90625-60.344-2.1077-0.69097-4.4282-0.87639-6.8125-0.875zm-46.156 13.75c10.156 0.0567 18.556 10.035 17.312 20.156-0.96879 14.146-20.648 20.287-30.187 10.469-10.873-9.3861-3.3723-29.92 10.812-30.5 0.69027-0.0873 1.3854-0.12878 2.0625-0.125z" fill="#007d00" fill-rule="evenodd"/>
   <text x="481.42859" y="666.64789" font-family="Bitstream Vera Sans" font-size="24">
    <tspan x="481.42859" y="666.64789">14</tspan>
   </text>
  </g>
  <g transform="matrix(0 -.22466 .22577 0 701.81 500.12)">
   <path transform="translate(504.89 476.4)" d="m214.29 169.51a65.714 65.714 0 1 1 -131.43 0 65.714 65.714 0 1 1 131.43 0z" fill="#fff" fill-rule="evenodd"/>
   <path d="m703.63 615.1c-3.9738 0.00232-8.1468 0.53086-11.969 0.15625-32.112 0.12503-64.328-0.25003-96.375 0.1875-10.526 18.632-11.228 43.531-0.1875 62.281 34.298 0.9687 68.627 0.065 102.94 0.40625 4.2448-0.84138 10.424 1.4531 13.312-1.8125 10.048-18.295 9.6083-42.204-0.90625-60.344-2.1077-0.69097-4.4282-0.87639-6.8125-0.875zm-46.156 13.75c10.156 0.0567 18.556 10.035 17.312 20.156-0.96879 14.146-20.648 20.287-30.188 10.469-10.873-9.3861-3.3723-29.92 10.812-30.5 0.69027-0.0873 1.3854-0.12878 2.0625-0.125z" fill="#a10008" fill-rule="evenodd"/>
   <text x="641.65973" y="655.71808" font-family="Bitstream Vera Sans" font-size="24">
    <tspan x="641.65973" y="655.71808">15</tspan>
   </text>
  </g>
 </g>
</svg>
